<?xml version="1.0" encoding="UTF-8" standalone="no"?>

<svg
   width="55.244274mm"
   height="10.697471mm"
   viewBox="0 0 55.244276 10.697471"
   version="1.1">
  <g transform="translate(-75.649364,-131.69016)">
    <g transform="translate(0.76683562,-10.199916)">
      <path
         d="m 90.620509,150.48902 q 0.577848,0 1.018114,-0.1651 0.454024,-0.17886 0.839256,-0.55033 l 1.141939,1.23824 q -1.045631,1.19698 -3.054342,1.19698 -1.252006,0 -2.215087,-0.48154 -0.963081,-0.4953 -1.485896,-1.36208 -0.522815,-0.86677 -0.522815,-1.96743 0,-1.08691 0.509057,-1.95368 0.522815,-0.88053 1.417105,-1.36207 0.908047,-0.4953 2.036228,-0.4953 1.059389,0 1.926162,0.45402 0.866773,0.44027 1.37583,1.29328 0.522815,0.83926 0.522815,1.99496 l -5.475803,1.05938 q 0.233891,0.55034 0.72919,0.8255 0.509057,0.27517 1.238247,0.27517 z m -0.316441,-4.27883 q -0.81174,0 -1.320797,0.52281 -0.509057,0.52282 -0.536574,1.44462 l 3.604675,-0.70167 q -0.151341,-0.57785 -0.619123,-0.92181 -0.467783,-0.34395 -1.128181,-0.34395 z"
          />
      <path
         d="m 97.94099,145.67361 q 0.385233,-0.53657 1.031873,-0.81174 0.660398,-0.27516 1.513417,-0.27516 v 1.98119 q -0.35772,-0.0275 -0.48154,-0.0275 -0.921811,0 -1.444626,0.52281 -0.522816,0.50906 -0.522816,1.54093 v 3.49461 h -2.146295 v -7.40197 h 2.049987 z"
         />
      <path
         d="m 105.59165,152.20881 q -1.18321,0 -2.13254,-0.48154 -0.93556,-0.4953 -1.47213,-1.36208 -0.52282,-0.86677 -0.52282,-1.96743 0,-1.10067 0.52282,-1.96744 0.53657,-0.86677 1.47213,-1.34831 0.94933,-0.4953 2.13254,-0.4953 1.16946,0 2.03623,0.4953 0.88053,0.48154 1.27952,1.38958 l -1.66475,0.89429 q -0.57785,-1.01811 -1.66476,-1.01811 -0.83925,0 -1.38959,0.55033 -0.55033,0.55033 -0.55033,1.49966 0,0.94932 0.55033,1.49965 0.55034,0.55033 1.38959,0.55033 1.10067,0 1.66476,-1.01811 l 1.66475,0.90805 q -0.39899,0.88053 -1.27952,1.37583 -0.86677,0.4953 -2.03623,0.4953 z"
          />
      <path
         d="m 114.90708,144.58671 q 1.37583,0 2.21508,0.8255 0.85302,0.82549 0.85302,2.44897 v 4.23756 h -2.1463 v -3.90736 q 0,-0.88053 -0.38523,-1.30704 -0.38523,-0.44026 -1.11442,-0.44026 -0.81174,0 -1.29328,0.50906 -0.48154,0.49529 -0.48154,1.48589 v 3.65971 h -2.1463 v -10.20866 h 2.1463 v 3.57716 q 0.4265,-0.42651 1.03187,-0.64664 0.60536,-0.23389 1.3208,-0.23389 z"
          />
      <path
         d="m 189.39589,19.964572 0.1086,0.0373 -0.19322,0.04737 L 189.328,20.0056 201.001,10 V 0 l -20.4,17.4859 v -4.986 L 166.001,0 V 10 L 177.674,19.9944 166.001,30 v 10 l 20.4,-17.4856 z"
         transform="matrix(0.264583,0,0,0.264583,75.042526,142.00423)"
         />
      <path
         d="m 82.678105,143.45174 q 1.142749,0 1.810293,0.95021 0.67886,0.9344 0.67886,2.81898 v 4.87781 h -1.765036 v -4.49772 q 0,-1.01356 -0.305487,-1.50451 -0.294172,-0.50678 -0.848574,-0.50678 -0.622289,0 -0.984347,0.57013 -0.36206,0.5543 -0.36206,1.66288 v 4.276 h -1.765036 v -4.49772 q 0,-2.01129 -1.154061,-2.01129 -0.610974,0 -0.973032,0.57013 -0.362059,0.5543 -0.362059,1.66288 v 4.276 h -1.765037 v -8.52031 h 1.685836 v 0.98188 q 0.33943,-0.53844 0.825946,-0.8235 0.49783,-0.28507 1.086176,-0.28507 0.644918,0 1.165378,0.36425 0.520458,0.3484 0.837259,1.0294 0.373373,-0.66515 0.93909,-1.0294 0.57703,-0.36425 1.255891,-0.36425 z"/>
    </g>
  </g>
</svg>
